<mxfile host="app.diagrams.net" agent="Mozilla/5.0 (Windows NT 10.0; Win64; x64) AppleWebKit/537.36 (KHTML, like Gecko) Chrome/130.0.0.0 Safari/537.36 Edg/130.0.0.0" version="24.8.3">
  <diagram id="6flptPm1XHoRwCUbnDWX" name="Page-1">
    <mxGraphModel dx="2548" dy="2208" grid="1" gridSize="10" guides="1" tooltips="1" connect="1" arrows="1" fold="1" page="1" pageScale="1" pageWidth="850" pageHeight="1100" math="0" shadow="0">
      <root>
        <mxCell id="0" />
        <mxCell id="1" parent="0" />
        <mxCell id="w9Nz_PeUc26pFPEd3qRn-2" value="Energy System" style="swimlane;childLayout=stackLayout;horizontal=1;startSize=50;horizontalStack=0;rounded=1;fontSize=14;fontStyle=0;strokeWidth=2;resizeParent=0;resizeLast=1;shadow=0;dashed=0;align=center;arcSize=4;whiteSpace=wrap;html=1;" vertex="1" parent="1">
          <mxGeometry x="1130" y="1850" width="210" height="120" as="geometry">
            <mxRectangle x="1980" y="640" width="80" height="50" as="alternateBounds" />
          </mxGeometry>
        </mxCell>
        <mxCell id="w9Nz_PeUc26pFPEd3qRn-3" value="+consumeEnergy(action: String): void&lt;br&gt;+regenerateEnergy&lt;span style=&quot;background-color: initial;&quot;&gt;(): void&lt;/span&gt;" style="align=left;strokeColor=none;fillColor=none;spacingLeft=4;fontSize=12;verticalAlign=top;resizable=0;rotatable=0;part=1;html=1;" vertex="1" parent="w9Nz_PeUc26pFPEd3qRn-2">
          <mxGeometry y="50" width="210" height="70" as="geometry" />
        </mxCell>
        <mxCell id="w9Nz_PeUc26pFPEd3qRn-4" value="Player System" style="swimlane;childLayout=stackLayout;horizontal=1;startSize=50;horizontalStack=0;rounded=1;fontSize=14;fontStyle=0;strokeWidth=2;resizeParent=0;resizeLast=1;shadow=0;dashed=0;align=center;arcSize=4;whiteSpace=wrap;html=1;" vertex="1" parent="1">
          <mxGeometry x="960" y="1985" width="160" height="120" as="geometry">
            <mxRectangle x="1980" y="640" width="80" height="50" as="alternateBounds" />
          </mxGeometry>
        </mxCell>
        <mxCell id="w9Nz_PeUc26pFPEd3qRn-5" value="+manageAttributes(): void&lt;br&gt;+applyPassives(): void" style="align=left;strokeColor=none;fillColor=none;spacingLeft=4;fontSize=12;verticalAlign=top;resizable=0;rotatable=0;part=1;html=1;" vertex="1" parent="w9Nz_PeUc26pFPEd3qRn-4">
          <mxGeometry y="50" width="160" height="70" as="geometry" />
        </mxCell>
        <mxCell id="w9Nz_PeUc26pFPEd3qRn-6" value="Passive System" style="swimlane;childLayout=stackLayout;horizontal=1;startSize=50;horizontalStack=0;rounded=1;fontSize=14;fontStyle=0;strokeWidth=2;resizeParent=0;resizeLast=1;shadow=0;dashed=0;align=center;arcSize=4;whiteSpace=wrap;html=1;" vertex="1" parent="1">
          <mxGeometry x="950" y="1650" width="160" height="120" as="geometry">
            <mxRectangle x="1980" y="640" width="80" height="50" as="alternateBounds" />
          </mxGeometry>
        </mxCell>
        <mxCell id="w9Nz_PeUc26pFPEd3qRn-7" value="+activePassiveSkill(): void&lt;br&gt;+checkConditions(): void" style="align=left;strokeColor=none;fillColor=none;spacingLeft=4;fontSize=12;verticalAlign=top;resizable=0;rotatable=0;part=1;html=1;" vertex="1" parent="w9Nz_PeUc26pFPEd3qRn-6">
          <mxGeometry y="50" width="160" height="70" as="geometry" />
        </mxCell>
        <mxCell id="w9Nz_PeUc26pFPEd3qRn-8" style="edgeStyle=orthogonalEdgeStyle;rounded=0;orthogonalLoop=1;jettySize=auto;html=1;exitX=1;exitY=0.25;exitDx=0;exitDy=0;entryX=0;entryY=0.5;entryDx=0;entryDy=0;dashed=1;dashPattern=8 8;" edge="1" parent="1" source="w9Nz_PeUc26pFPEd3qRn-10" target="w9Nz_PeUc26pFPEd3qRn-14">
          <mxGeometry relative="1" as="geometry">
            <Array as="points">
              <mxPoint x="1540" y="1680" />
              <mxPoint x="1540" y="1600" />
            </Array>
          </mxGeometry>
        </mxCell>
        <mxCell id="w9Nz_PeUc26pFPEd3qRn-9" value="Play Combat Animation" style="edgeLabel;html=1;align=center;verticalAlign=middle;resizable=0;points=[];" vertex="1" connectable="0" parent="w9Nz_PeUc26pFPEd3qRn-8">
          <mxGeometry x="-0.5529" y="-2" relative="1" as="geometry">
            <mxPoint as="offset" />
          </mxGeometry>
        </mxCell>
        <mxCell id="w9Nz_PeUc26pFPEd3qRn-72" style="edgeStyle=orthogonalEdgeStyle;rounded=0;orthogonalLoop=1;jettySize=auto;html=1;entryX=0;entryY=0;entryDx=0;entryDy=0;endArrow=diamondThin;endFill=1;endSize=11;" edge="1" parent="1" source="w9Nz_PeUc26pFPEd3qRn-10" target="w9Nz_PeUc26pFPEd3qRn-5">
          <mxGeometry relative="1" as="geometry">
            <Array as="points">
              <mxPoint x="1320" y="1570" />
              <mxPoint x="900" y="1570" />
              <mxPoint x="900" y="2035" />
            </Array>
          </mxGeometry>
        </mxCell>
        <mxCell id="w9Nz_PeUc26pFPEd3qRn-75" value="Apply Combat Status" style="edgeLabel;html=1;align=center;verticalAlign=middle;resizable=0;points=[];" vertex="1" connectable="0" parent="w9Nz_PeUc26pFPEd3qRn-72">
          <mxGeometry x="-0.3366" y="-1" relative="1" as="geometry">
            <mxPoint as="offset" />
          </mxGeometry>
        </mxCell>
        <mxCell id="w9Nz_PeUc26pFPEd3qRn-10" value="Combat System" style="swimlane;childLayout=stackLayout;horizontal=1;startSize=50;horizontalStack=0;rounded=1;fontSize=14;fontStyle=0;strokeWidth=2;resizeParent=0;resizeLast=1;shadow=0;dashed=0;align=center;arcSize=4;whiteSpace=wrap;html=1;" vertex="1" parent="1">
          <mxGeometry x="1300" y="1650" width="160" height="120" as="geometry">
            <mxRectangle x="1980" y="640" width="80" height="50" as="alternateBounds" />
          </mxGeometry>
        </mxCell>
        <mxCell id="w9Nz_PeUc26pFPEd3qRn-11" value="+ attack(): void&lt;br&gt;+block(): void&lt;br&gt;+executeCombo(): void" style="align=left;strokeColor=none;fillColor=none;spacingLeft=4;fontSize=12;verticalAlign=top;resizable=0;rotatable=0;part=1;html=1;" vertex="1" parent="w9Nz_PeUc26pFPEd3qRn-10">
          <mxGeometry y="50" width="160" height="70" as="geometry" />
        </mxCell>
        <mxCell id="w9Nz_PeUc26pFPEd3qRn-12" value="VisualFeedback System" style="swimlane;childLayout=stackLayout;horizontal=1;startSize=50;horizontalStack=0;rounded=1;fontSize=14;fontStyle=0;strokeWidth=2;resizeParent=0;resizeLast=1;shadow=0;dashed=0;align=center;arcSize=4;whiteSpace=wrap;html=1;" vertex="1" parent="1">
          <mxGeometry x="1380" y="2260" width="210" height="120" as="geometry">
            <mxRectangle x="1980" y="640" width="80" height="50" as="alternateBounds" />
          </mxGeometry>
        </mxCell>
        <mxCell id="w9Nz_PeUc26pFPEd3qRn-13" value="+displayHealthStatus(): void&lt;br&gt;+displayEnergyStaus(): void&lt;div&gt;+displayPassive():void&lt;/div&gt;" style="align=left;strokeColor=none;fillColor=none;spacingLeft=4;fontSize=12;verticalAlign=top;resizable=0;rotatable=0;part=1;html=1;" vertex="1" parent="w9Nz_PeUc26pFPEd3qRn-12">
          <mxGeometry y="50" width="210" height="70" as="geometry" />
        </mxCell>
        <mxCell id="w9Nz_PeUc26pFPEd3qRn-14" value="Animation System" style="swimlane;childLayout=stackLayout;horizontal=1;startSize=50;horizontalStack=0;rounded=1;fontSize=14;fontStyle=0;strokeWidth=2;resizeParent=0;resizeLast=1;shadow=0;dashed=0;align=center;arcSize=4;whiteSpace=wrap;html=1;" vertex="1" parent="1">
          <mxGeometry x="1850" y="1540" width="210" height="120" as="geometry">
            <mxRectangle x="1980" y="640" width="80" height="50" as="alternateBounds" />
          </mxGeometry>
        </mxCell>
        <mxCell id="w9Nz_PeUc26pFPEd3qRn-15" value="+playAnimation(action: String): void" style="align=left;strokeColor=none;fillColor=none;spacingLeft=4;fontSize=12;verticalAlign=top;resizable=0;rotatable=0;part=1;html=1;" vertex="1" parent="w9Nz_PeUc26pFPEd3qRn-14">
          <mxGeometry y="50" width="210" height="70" as="geometry" />
        </mxCell>
        <mxCell id="w9Nz_PeUc26pFPEd3qRn-16" value="UI System" style="swimlane;childLayout=stackLayout;horizontal=1;startSize=50;horizontalStack=0;rounded=1;fontSize=14;fontStyle=0;strokeWidth=2;resizeParent=0;resizeLast=1;shadow=0;dashed=0;align=center;arcSize=4;whiteSpace=wrap;html=1;" vertex="1" parent="1">
          <mxGeometry x="950" y="1275" width="180" height="120" as="geometry">
            <mxRectangle x="1980" y="640" width="80" height="50" as="alternateBounds" />
          </mxGeometry>
        </mxCell>
        <mxCell id="w9Nz_PeUc26pFPEd3qRn-17" value="+ShowMenu(Menu: String): void&lt;br&gt;+showPauseMenu(): void&lt;div&gt;&lt;br/&gt;&lt;/div&gt;" style="align=left;strokeColor=none;fillColor=none;spacingLeft=4;fontSize=12;verticalAlign=top;resizable=0;rotatable=0;part=1;html=1;" vertex="1" parent="w9Nz_PeUc26pFPEd3qRn-16">
          <mxGeometry y="50" width="180" height="70" as="geometry" />
        </mxCell>
        <mxCell id="w9Nz_PeUc26pFPEd3qRn-18" value="Control System" style="swimlane;childLayout=stackLayout;horizontal=1;startSize=50;horizontalStack=0;rounded=1;fontSize=14;fontStyle=0;strokeWidth=2;resizeParent=0;resizeLast=1;shadow=0;dashed=0;align=center;arcSize=4;whiteSpace=wrap;html=1;" vertex="1" parent="1">
          <mxGeometry x="1630" y="1280" width="160" height="120" as="geometry">
            <mxRectangle x="1980" y="640" width="80" height="50" as="alternateBounds" />
          </mxGeometry>
        </mxCell>
        <mxCell id="w9Nz_PeUc26pFPEd3qRn-19" value="+handleInput(): void&lt;br&gt;+processCommands(): void&lt;div&gt;&lt;br/&gt;&lt;/div&gt;" style="align=left;strokeColor=none;fillColor=none;spacingLeft=4;fontSize=12;verticalAlign=top;resizable=0;rotatable=0;part=1;html=1;" vertex="1" parent="w9Nz_PeUc26pFPEd3qRn-18">
          <mxGeometry y="50" width="160" height="70" as="geometry" />
        </mxCell>
        <mxCell id="w9Nz_PeUc26pFPEd3qRn-20" value="AI System" style="swimlane;childLayout=stackLayout;horizontal=1;startSize=50;horizontalStack=0;rounded=1;fontSize=14;fontStyle=0;strokeWidth=2;resizeParent=0;resizeLast=1;shadow=0;dashed=0;align=center;arcSize=4;whiteSpace=wrap;html=1;" vertex="1" parent="1">
          <mxGeometry x="960" y="2250" width="190" height="120" as="geometry">
            <mxRectangle x="1980" y="640" width="80" height="50" as="alternateBounds" />
          </mxGeometry>
        </mxCell>
        <mxCell id="w9Nz_PeUc26pFPEd3qRn-21" value="+analyzePlayerAction(): void&lt;br&gt;+respondToplayer(): void" style="align=left;strokeColor=none;fillColor=none;spacingLeft=4;fontSize=12;verticalAlign=top;resizable=0;rotatable=0;part=1;html=1;" vertex="1" parent="w9Nz_PeUc26pFPEd3qRn-20">
          <mxGeometry y="50" width="190" height="70" as="geometry" />
        </mxCell>
        <mxCell id="w9Nz_PeUc26pFPEd3qRn-63" style="rounded=0;orthogonalLoop=1;jettySize=auto;html=1;entryX=1;entryY=0.25;entryDx=0;entryDy=0;endArrow=diamondThin;endFill=1;endSize=11;edgeStyle=orthogonalEdgeStyle;" edge="1" parent="1" source="w9Nz_PeUc26pFPEd3qRn-22" target="w9Nz_PeUc26pFPEd3qRn-5">
          <mxGeometry relative="1" as="geometry">
            <Array as="points">
              <mxPoint x="1330" y="2053" />
              <mxPoint x="1330" y="2053" />
            </Array>
          </mxGeometry>
        </mxCell>
        <mxCell id="w9Nz_PeUc26pFPEd3qRn-74" value="has" style="edgeLabel;html=1;align=center;verticalAlign=middle;resizable=0;points=[];" vertex="1" connectable="0" parent="w9Nz_PeUc26pFPEd3qRn-63">
          <mxGeometry x="-0.2379" y="1" relative="1" as="geometry">
            <mxPoint as="offset" />
          </mxGeometry>
        </mxCell>
        <mxCell id="w9Nz_PeUc26pFPEd3qRn-24" value="Sound System" style="swimlane;childLayout=stackLayout;horizontal=1;startSize=50;horizontalStack=0;rounded=1;fontSize=14;fontStyle=0;strokeWidth=2;resizeParent=0;resizeLast=1;shadow=0;dashed=0;align=center;arcSize=4;whiteSpace=wrap;html=1;" vertex="1" parent="1">
          <mxGeometry x="1850" y="1760" width="210" height="120" as="geometry">
            <mxRectangle x="1980" y="640" width="80" height="50" as="alternateBounds" />
          </mxGeometry>
        </mxCell>
        <mxCell id="w9Nz_PeUc26pFPEd3qRn-25" value="+playeSound(effect: String): void&lt;br&gt;+manageBackgruondMusic(): void&lt;div&gt;&lt;br&gt;&lt;/div&gt;" style="align=left;strokeColor=none;fillColor=none;spacingLeft=4;fontSize=12;verticalAlign=top;resizable=0;rotatable=0;part=1;html=1;" vertex="1" parent="w9Nz_PeUc26pFPEd3qRn-24">
          <mxGeometry y="50" width="210" height="70" as="geometry" />
        </mxCell>
        <mxCell id="w9Nz_PeUc26pFPEd3qRn-26" value="Weapon System" style="swimlane;childLayout=stackLayout;horizontal=1;startSize=50;horizontalStack=0;rounded=1;fontSize=14;fontStyle=0;strokeWidth=2;resizeParent=0;resizeLast=1;shadow=0;dashed=0;align=center;arcSize=4;whiteSpace=wrap;html=1;" vertex="1" parent="1">
          <mxGeometry x="1300" y="1280" width="160" height="120" as="geometry">
            <mxRectangle x="1980" y="640" width="80" height="50" as="alternateBounds" />
          </mxGeometry>
        </mxCell>
        <mxCell id="w9Nz_PeUc26pFPEd3qRn-27" value="+spawnWeapon(): void&lt;br&gt;+handleDurability(): void&lt;br&gt;+throwWeapon(): void" style="align=left;strokeColor=none;fillColor=none;spacingLeft=4;fontSize=12;verticalAlign=top;resizable=0;rotatable=0;part=1;html=1;" vertex="1" parent="w9Nz_PeUc26pFPEd3qRn-26">
          <mxGeometry y="50" width="160" height="70" as="geometry" />
        </mxCell>
        <mxCell id="w9Nz_PeUc26pFPEd3qRn-28" value="Physics System" style="swimlane;childLayout=stackLayout;horizontal=1;startSize=50;horizontalStack=0;rounded=1;fontSize=14;fontStyle=0;strokeWidth=2;resizeParent=0;resizeLast=1;shadow=0;dashed=0;align=center;arcSize=4;whiteSpace=wrap;html=1;" vertex="1" parent="1">
          <mxGeometry x="1630" y="1650" width="160" height="120" as="geometry">
            <mxRectangle x="1980" y="640" width="80" height="50" as="alternateBounds" />
          </mxGeometry>
        </mxCell>
        <mxCell id="w9Nz_PeUc26pFPEd3qRn-29" value="+applyGravity(): void&lt;br&gt;+handleKnockback(): void&lt;br&gt;+calculateCollision(): void" style="align=left;strokeColor=none;fillColor=none;spacingLeft=4;fontSize=12;verticalAlign=top;resizable=0;rotatable=0;part=1;html=1;" vertex="1" parent="w9Nz_PeUc26pFPEd3qRn-28">
          <mxGeometry y="50" width="160" height="70" as="geometry" />
        </mxCell>
        <mxCell id="w9Nz_PeUc26pFPEd3qRn-30" value="&lt;p style=&quot;line-height: 50%;&quot;&gt;&lt;br&gt;&lt;/p&gt;" style="edgeStyle=orthogonalEdgeStyle;rounded=0;orthogonalLoop=1;jettySize=auto;html=1;entryX=0;entryY=0.5;entryDx=0;entryDy=0;horizontal=0;labelPosition=center;verticalLabelPosition=middle;align=center;verticalAlign=middle;textDirection=ltr;dashed=1;dashPattern=8 8;" edge="1" parent="1" source="w9Nz_PeUc26pFPEd3qRn-11" target="w9Nz_PeUc26pFPEd3qRn-29">
          <mxGeometry relative="1" as="geometry" />
        </mxCell>
        <mxCell id="w9Nz_PeUc26pFPEd3qRn-31" value="Apply Physics" style="edgeLabel;html=1;align=center;verticalAlign=middle;resizable=0;points=[];" vertex="1" connectable="0" parent="w9Nz_PeUc26pFPEd3qRn-30">
          <mxGeometry x="-0.0379" y="13" relative="1" as="geometry">
            <mxPoint y="-2" as="offset" />
          </mxGeometry>
        </mxCell>
        <mxCell id="w9Nz_PeUc26pFPEd3qRn-32" style="edgeStyle=orthogonalEdgeStyle;rounded=0;orthogonalLoop=1;jettySize=auto;html=1;dashed=1;dashPattern=8 8;" edge="1" parent="1" source="w9Nz_PeUc26pFPEd3qRn-23" target="w9Nz_PeUc26pFPEd3qRn-12">
          <mxGeometry relative="1" as="geometry" />
        </mxCell>
        <mxCell id="w9Nz_PeUc26pFPEd3qRn-33" value="Update Health Status" style="edgeLabel;html=1;align=center;verticalAlign=middle;resizable=0;points=[];" vertex="1" connectable="0" parent="w9Nz_PeUc26pFPEd3qRn-32">
          <mxGeometry x="-0.0913" y="-2" relative="1" as="geometry">
            <mxPoint y="1" as="offset" />
          </mxGeometry>
        </mxCell>
        <mxCell id="w9Nz_PeUc26pFPEd3qRn-34" style="edgeStyle=orthogonalEdgeStyle;rounded=0;orthogonalLoop=1;jettySize=auto;html=1;endArrow=diamondThin;endFill=1;endSize=11;" edge="1" parent="1" source="w9Nz_PeUc26pFPEd3qRn-6">
          <mxGeometry relative="1" as="geometry">
            <mxPoint x="1300" y="1750" as="targetPoint" />
            <Array as="points">
              <mxPoint x="1200" y="1750" />
              <mxPoint x="1300" y="1751" />
            </Array>
          </mxGeometry>
        </mxCell>
        <mxCell id="w9Nz_PeUc26pFPEd3qRn-35" value="Apply Passive" style="edgeLabel;html=1;align=center;verticalAlign=middle;resizable=0;points=[];" vertex="1" connectable="0" parent="w9Nz_PeUc26pFPEd3qRn-34">
          <mxGeometry x="0.0196" y="-3" relative="1" as="geometry">
            <mxPoint as="offset" />
          </mxGeometry>
        </mxCell>
        <mxCell id="w9Nz_PeUc26pFPEd3qRn-36" style="edgeStyle=orthogonalEdgeStyle;rounded=0;orthogonalLoop=1;jettySize=auto;html=1;entryX=0.5;entryY=0;entryDx=0;entryDy=0;dashed=1;dashPattern=8 8;" edge="1" parent="1" source="w9Nz_PeUc26pFPEd3qRn-27" target="w9Nz_PeUc26pFPEd3qRn-10">
          <mxGeometry relative="1" as="geometry" />
        </mxCell>
        <mxCell id="w9Nz_PeUc26pFPEd3qRn-37" value="Manage Weapon Usage" style="edgeLabel;html=1;align=center;verticalAlign=middle;resizable=0;points=[];" vertex="1" connectable="0" parent="w9Nz_PeUc26pFPEd3qRn-36">
          <mxGeometry x="-0.0773" y="-5" relative="1" as="geometry">
            <mxPoint as="offset" />
          </mxGeometry>
        </mxCell>
        <mxCell id="w9Nz_PeUc26pFPEd3qRn-38" style="edgeStyle=orthogonalEdgeStyle;rounded=0;orthogonalLoop=1;jettySize=auto;html=1;entryX=0.5;entryY=0;entryDx=0;entryDy=0;dashed=1;dashPattern=8 8;" edge="1" parent="1" source="w9Nz_PeUc26pFPEd3qRn-19" target="w9Nz_PeUc26pFPEd3qRn-28">
          <mxGeometry relative="1" as="geometry" />
        </mxCell>
        <mxCell id="w9Nz_PeUc26pFPEd3qRn-39" value="Move Player" style="edgeLabel;html=1;align=center;verticalAlign=middle;resizable=0;points=[];" vertex="1" connectable="0" parent="w9Nz_PeUc26pFPEd3qRn-38">
          <mxGeometry x="-0.0507" y="3" relative="1" as="geometry">
            <mxPoint as="offset" />
          </mxGeometry>
        </mxCell>
        <mxCell id="w9Nz_PeUc26pFPEd3qRn-42" style="edgeStyle=orthogonalEdgeStyle;rounded=0;orthogonalLoop=1;jettySize=auto;html=1;exitX=0;exitY=1;exitDx=0;exitDy=0;entryX=1;entryY=0;entryDx=0;entryDy=0;dashed=1;dashPattern=8 8;" edge="1" parent="1" source="w9Nz_PeUc26pFPEd3qRn-19" target="w9Nz_PeUc26pFPEd3qRn-10">
          <mxGeometry relative="1" as="geometry">
            <mxPoint x="1460" y="1640" as="targetPoint" />
            <Array as="points">
              <mxPoint x="1660" y="1400" />
              <mxPoint x="1660" y="1480" />
              <mxPoint x="1460" y="1480" />
            </Array>
          </mxGeometry>
        </mxCell>
        <mxCell id="w9Nz_PeUc26pFPEd3qRn-43" value="Process Command" style="edgeLabel;html=1;align=center;verticalAlign=middle;resizable=0;points=[];" vertex="1" connectable="0" parent="w9Nz_PeUc26pFPEd3qRn-42">
          <mxGeometry x="-0.0201" y="2" relative="1" as="geometry">
            <mxPoint as="offset" />
          </mxGeometry>
        </mxCell>
        <mxCell id="w9Nz_PeUc26pFPEd3qRn-46" style="edgeStyle=orthogonalEdgeStyle;rounded=0;orthogonalLoop=1;jettySize=auto;html=1;entryX=0.833;entryY=0;entryDx=0;entryDy=0;entryPerimeter=0;dashed=1;dashPattern=8 8;" edge="1" parent="1" source="w9Nz_PeUc26pFPEd3qRn-3" target="w9Nz_PeUc26pFPEd3qRn-12">
          <mxGeometry relative="1" as="geometry">
            <Array as="points">
              <mxPoint x="1235" y="2130" />
              <mxPoint x="1555" y="2130" />
            </Array>
          </mxGeometry>
        </mxCell>
        <mxCell id="w9Nz_PeUc26pFPEd3qRn-47" value="Update Energy Status" style="edgeLabel;html=1;align=center;verticalAlign=middle;resizable=0;points=[];" vertex="1" connectable="0" parent="w9Nz_PeUc26pFPEd3qRn-46">
          <mxGeometry x="-0.0438" y="-3" relative="1" as="geometry">
            <mxPoint y="-7" as="offset" />
          </mxGeometry>
        </mxCell>
        <mxCell id="w9Nz_PeUc26pFPEd3qRn-52" style="edgeStyle=orthogonalEdgeStyle;rounded=0;orthogonalLoop=1;jettySize=auto;html=1;exitX=0.75;exitY=1;exitDx=0;exitDy=0;entryX=0.11;entryY=0.003;entryDx=0;entryDy=0;entryPerimeter=0;dashed=1;dashPattern=8 8;" edge="1" parent="1" source="w9Nz_PeUc26pFPEd3qRn-5" target="w9Nz_PeUc26pFPEd3qRn-12">
          <mxGeometry relative="1" as="geometry" />
        </mxCell>
        <mxCell id="w9Nz_PeUc26pFPEd3qRn-53" value="Update Passive Status" style="edgeLabel;html=1;align=center;verticalAlign=middle;resizable=0;points=[];" vertex="1" connectable="0" parent="w9Nz_PeUc26pFPEd3qRn-52">
          <mxGeometry x="0.1426" y="-3" relative="1" as="geometry">
            <mxPoint x="-19" y="-16" as="offset" />
          </mxGeometry>
        </mxCell>
        <mxCell id="w9Nz_PeUc26pFPEd3qRn-54" style="edgeStyle=orthogonalEdgeStyle;rounded=0;orthogonalLoop=1;jettySize=auto;html=1;exitX=0.25;exitY=1;exitDx=0;exitDy=0;entryX=0.209;entryY=-0.003;entryDx=0;entryDy=0;entryPerimeter=0;dashed=1;dashPattern=12 12;" edge="1" parent="1" source="w9Nz_PeUc26pFPEd3qRn-5" target="w9Nz_PeUc26pFPEd3qRn-20">
          <mxGeometry relative="1" as="geometry" />
        </mxCell>
        <mxCell id="w9Nz_PeUc26pFPEd3qRn-55" value="Notify Player Action" style="edgeLabel;html=1;align=center;verticalAlign=middle;resizable=0;points=[];" vertex="1" connectable="0" parent="w9Nz_PeUc26pFPEd3qRn-54">
          <mxGeometry x="0.1702" y="2" relative="1" as="geometry">
            <mxPoint as="offset" />
          </mxGeometry>
        </mxCell>
        <mxCell id="w9Nz_PeUc26pFPEd3qRn-57" style="edgeStyle=orthogonalEdgeStyle;rounded=0;orthogonalLoop=1;jettySize=auto;html=1;exitX=0.25;exitY=1;exitDx=0;exitDy=0;entryX=0;entryY=0.25;entryDx=0;entryDy=0;dashed=1;dashPattern=8 8;" edge="1" parent="1" source="w9Nz_PeUc26pFPEd3qRn-11" target="w9Nz_PeUc26pFPEd3qRn-25">
          <mxGeometry relative="1" as="geometry">
            <Array as="points">
              <mxPoint x="1420" y="1770" />
              <mxPoint x="1420" y="1827" />
            </Array>
          </mxGeometry>
        </mxCell>
        <mxCell id="w9Nz_PeUc26pFPEd3qRn-58" value="Play Combat Sound" style="edgeLabel;html=1;align=center;verticalAlign=middle;resizable=0;points=[];" vertex="1" connectable="0" parent="w9Nz_PeUc26pFPEd3qRn-57">
          <mxGeometry x="-0.0641" y="-2" relative="1" as="geometry">
            <mxPoint as="offset" />
          </mxGeometry>
        </mxCell>
        <mxCell id="w9Nz_PeUc26pFPEd3qRn-64" value="" style="edgeStyle=orthogonalEdgeStyle;rounded=0;orthogonalLoop=1;jettySize=auto;html=1;endArrow=diamondThin;endFill=1;endSize=11;" edge="1" parent="1" source="w9Nz_PeUc26pFPEd3qRn-29" target="w9Nz_PeUc26pFPEd3qRn-22">
          <mxGeometry relative="1" as="geometry">
            <mxPoint x="1480" y="2010" as="targetPoint" />
            <Array as="points">
              <mxPoint x="1720" y="2045" />
            </Array>
            <mxPoint x="1710" y="1770" as="sourcePoint" />
          </mxGeometry>
        </mxCell>
        <mxCell id="w9Nz_PeUc26pFPEd3qRn-66" value="Apply Collision Damage" style="edgeLabel;html=1;align=center;verticalAlign=middle;resizable=0;points=[];" vertex="1" connectable="0" parent="w9Nz_PeUc26pFPEd3qRn-64">
          <mxGeometry x="-0.0272" y="-1" relative="1" as="geometry">
            <mxPoint as="offset" />
          </mxGeometry>
        </mxCell>
        <mxCell id="w9Nz_PeUc26pFPEd3qRn-22" value="Health System" style="swimlane;childLayout=stackLayout;horizontal=1;startSize=50;horizontalStack=0;rounded=1;fontSize=14;fontStyle=0;strokeWidth=2;resizeParent=0;resizeLast=1;shadow=0;dashed=0;align=center;arcSize=4;whiteSpace=wrap;html=1;" vertex="1" parent="1">
          <mxGeometry x="1390" y="1985" width="190" height="120" as="geometry">
            <mxRectangle x="1980" y="640" width="80" height="50" as="alternateBounds" />
          </mxGeometry>
        </mxCell>
        <mxCell id="w9Nz_PeUc26pFPEd3qRn-23" value="+updateHealth(damage: int): void&lt;br&gt;+displayInjuryStatus(): void" style="align=left;strokeColor=none;fillColor=none;spacingLeft=4;fontSize=12;verticalAlign=top;resizable=0;rotatable=0;part=1;html=1;" vertex="1" parent="w9Nz_PeUc26pFPEd3qRn-22">
          <mxGeometry y="50" width="190" height="70" as="geometry" />
        </mxCell>
        <mxCell id="w9Nz_PeUc26pFPEd3qRn-68" style="edgeStyle=orthogonalEdgeStyle;rounded=0;orthogonalLoop=1;jettySize=auto;html=1;exitX=0.25;exitY=1;exitDx=0;exitDy=0;entryX=0.5;entryY=0;entryDx=0;entryDy=0;" edge="1" parent="1" source="w9Nz_PeUc26pFPEd3qRn-11" target="w9Nz_PeUc26pFPEd3qRn-2">
          <mxGeometry relative="1" as="geometry" />
        </mxCell>
        <mxCell id="w9Nz_PeUc26pFPEd3qRn-69" value="Request Energy" style="edgeLabel;html=1;align=center;verticalAlign=middle;resizable=0;points=[];" vertex="1" connectable="0" parent="w9Nz_PeUc26pFPEd3qRn-68">
          <mxGeometry x="0.0811" y="-1" relative="1" as="geometry">
            <mxPoint as="offset" />
          </mxGeometry>
        </mxCell>
        <mxCell id="w9Nz_PeUc26pFPEd3qRn-70" style="edgeStyle=orthogonalEdgeStyle;rounded=0;orthogonalLoop=1;jettySize=auto;html=1;endArrow=diamondThin;endFill=1;endSize=11;" edge="1" parent="1" source="w9Nz_PeUc26pFPEd3qRn-3">
          <mxGeometry relative="1" as="geometry">
            <mxPoint x="1080" y="1980" as="targetPoint" />
          </mxGeometry>
        </mxCell>
        <mxCell id="w9Nz_PeUc26pFPEd3qRn-73" value="has" style="edgeLabel;html=1;align=center;verticalAlign=middle;resizable=0;points=[];" vertex="1" connectable="0" parent="w9Nz_PeUc26pFPEd3qRn-70">
          <mxGeometry x="-0.3958" y="4" relative="1" as="geometry">
            <mxPoint as="offset" />
          </mxGeometry>
        </mxCell>
        <mxCell id="w9Nz_PeUc26pFPEd3qRn-76" style="edgeStyle=orthogonalEdgeStyle;rounded=0;orthogonalLoop=1;jettySize=auto;html=1;entryX=0;entryY=0.75;entryDx=0;entryDy=0;endArrow=diamondThin;endFill=1;endSize=11;" edge="1" parent="1" source="w9Nz_PeUc26pFPEd3qRn-27" target="w9Nz_PeUc26pFPEd3qRn-5">
          <mxGeometry relative="1" as="geometry">
            <Array as="points">
              <mxPoint x="1330" y="1470" />
              <mxPoint x="860" y="1470" />
              <mxPoint x="860" y="2087" />
            </Array>
          </mxGeometry>
        </mxCell>
        <mxCell id="w9Nz_PeUc26pFPEd3qRn-77" value="Provide Weapon Data" style="edgeLabel;html=1;align=center;verticalAlign=middle;resizable=0;points=[];" vertex="1" connectable="0" parent="w9Nz_PeUc26pFPEd3qRn-76">
          <mxGeometry x="-0.5433" y="5" relative="1" as="geometry">
            <mxPoint as="offset" />
          </mxGeometry>
        </mxCell>
        <mxCell id="w9Nz_PeUc26pFPEd3qRn-80" style="edgeStyle=orthogonalEdgeStyle;rounded=0;orthogonalLoop=1;jettySize=auto;html=1;entryX=1.006;entryY=0.134;entryDx=0;entryDy=0;entryPerimeter=0;dashed=1;dashPattern=12 12;" edge="1" parent="1" source="w9Nz_PeUc26pFPEd3qRn-10" target="w9Nz_PeUc26pFPEd3qRn-7">
          <mxGeometry relative="1" as="geometry" />
        </mxCell>
        <mxCell id="w9Nz_PeUc26pFPEd3qRn-81" value="Trigger Passive" style="edgeLabel;html=1;align=center;verticalAlign=middle;resizable=0;points=[];" vertex="1" connectable="0" parent="w9Nz_PeUc26pFPEd3qRn-80">
          <mxGeometry x="-0.0247" relative="1" as="geometry">
            <mxPoint as="offset" />
          </mxGeometry>
        </mxCell>
        <mxCell id="w9Nz_PeUc26pFPEd3qRn-82" style="edgeStyle=orthogonalEdgeStyle;rounded=0;orthogonalLoop=1;jettySize=auto;html=1;exitX=0.25;exitY=1;exitDx=0;exitDy=0;entryX=0.194;entryY=-0.023;entryDx=0;entryDy=0;entryPerimeter=0;endArrow=diamondThin;endFill=1;endSize=11;" edge="1" parent="1" source="w9Nz_PeUc26pFPEd3qRn-7" target="w9Nz_PeUc26pFPEd3qRn-4">
          <mxGeometry relative="1" as="geometry" />
        </mxCell>
        <mxCell id="w9Nz_PeUc26pFPEd3qRn-83" value="Apply Passive" style="edgeLabel;html=1;align=center;verticalAlign=middle;resizable=0;points=[];" vertex="1" connectable="0" parent="w9Nz_PeUc26pFPEd3qRn-82">
          <mxGeometry x="-0.0684" y="3" relative="1" as="geometry">
            <mxPoint y="1" as="offset" />
          </mxGeometry>
        </mxCell>
        <mxCell id="w9Nz_PeUc26pFPEd3qRn-84" style="edgeStyle=orthogonalEdgeStyle;rounded=0;orthogonalLoop=1;jettySize=auto;html=1;entryX=0.667;entryY=0;entryDx=0;entryDy=0;entryPerimeter=0;dashed=1;dashPattern=8 8;" edge="1" parent="1" source="w9Nz_PeUc26pFPEd3qRn-19" target="w9Nz_PeUc26pFPEd3qRn-14">
          <mxGeometry relative="1" as="geometry" />
        </mxCell>
        <mxCell id="w9Nz_PeUc26pFPEd3qRn-85" value="Trigger Animation" style="edgeLabel;html=1;align=center;verticalAlign=middle;resizable=0;points=[];" vertex="1" connectable="0" parent="w9Nz_PeUc26pFPEd3qRn-84">
          <mxGeometry x="-0.5042" y="-1" relative="1" as="geometry">
            <mxPoint as="offset" />
          </mxGeometry>
        </mxCell>
      </root>
    </mxGraphModel>
  </diagram>
</mxfile>
